<?xml version="1.0" encoding="UTF-8"?>
<svg id="Layer_1" xmlns="http://www.w3.org/2000/svg" version="1.1" viewBox="0 0 3000 3000">
  <!-- Generator: Adobe Illustrator 29.5.1, SVG Export Plug-In . SVG Version: 2.1.0 Build 141)  -->
  <defs>
    <style>
      .st0 {
        fill: #ffff59;
      }

      .st1 {
        fill: #dee6ff;
      }

      .st2 {
        fill: #fff;
      }

      .st3 {
        fill: #f66;
      }

      .st4 {
        fill: #231f20;
      }

      .st5 {
        fill: #f23d3d;
      }

      .st6 {
        fill: #5983ff;
      }
    </style>
  </defs>
  <rect class="st2" width="3000" height="3000"/>
  <g>
    <g>
      <path class="st0" d="M1675,814.2c-1.9,123-93.4,181.3-104.2,246.2-1.2,7.1-7.3,12.3-14.5,12.3h-112.6c-7.2,0-13.3-5.2-14.5-12.3-10.8-64.9-102.2-123.1-104.2-246.2,0-1.3,0-2.6,0-4,0-96.7,78.3-175,175-175s175,78.3,175,175,0,2.7,0,4h0Z"/>
      <path class="st1" d="M1551.3,1072.8h-102.6c-9.2,0-16.7,7.4-16.7,16.7h0c0,7.1,4.4,13.1,10.7,15.5-2,2.7-3.2,6.1-3.2,9.7h0c0,9.2,7.4,16.7,16.7,16.7h87.6c9.2,0,16.7-7.4,16.7-16.7h0c0-3.6-1.2-7-3.2-9.7,6.2-2.4,10.7-8.4,10.7-15.5h0c0-9.2-7.4-16.7-16.7-16.7Z"/>
      <path class="st6" d="M1460.4,1131.3h79.2c0,18.4-14.9,33.3-33.3,33.3h-12.6c-18.4,0-33.3-14.9-33.3-33.3h0Z"/>
    </g>
    <path class="st6" d="M872.6,1148.6c-2.8,0-5.5-1.1-7.6-3.1l-109.8-109.8c-4.2-4.2-4.2-11,0-15.2s11-4.2,15.2,0l109.8,109.8c4.2,4.2,4.2,11,0,15.2-2.1,2.1-4.8,3.1-7.6,3.1h0Z"/>
    <path class="st6" d="M612.7,1776h-155.3c-5.9,0-10.7-4.8-10.7-10.7s4.8-10.7,10.7-10.7h155.3c5.9,0,10.7,4.8,10.7,10.7s-4.8,10.7-10.7,10.7Z"/>
    <path class="st6" d="M2542.6,1776h-155.3c-5.9,0-10.7-4.8-10.7-10.7s4.8-10.7,10.7-10.7h155.3c5.9,0,10.7,4.8,10.7,10.7s-4.8,10.7-10.7,10.7Z"/>
    <path class="st6" d="M2127.4,1148.6c-2.8,0-5.5-1.1-7.6-3.1-4.2-4.2-4.2-11,0-15.2l109.8-109.8c4.2-4.2,11-4.2,15.2,0s4.2,11,0,15.2l-109.8,109.8c-2.1,2.1-4.8,3.1-7.6,3.1h0Z"/>
    <g>
      <polygon class="st3" points="1283.5 1979.1 1283.5 2157.9 1283.5 2275.9 1212.6 2364.7 1283.5 2364.7 1485.7 2364.7 1485.7 2275.9 1485.7 2157.9 1485.7 1979.1 1283.5 1979.1"/>
      <polygon class="st3" points="1716.5 2275.9 1716.5 2157.9 1716.5 1979.1 1514.3 1979.1 1514.3 2157.9 1514.3 2275.9 1514.3 2364.7 1716.5 2364.7 1787.4 2364.7 1716.5 2275.9"/>
      <path class="st4" d="M1485.7,1979.1v69.8c-43.8,26.6-96.1,41.2-149.7,41.2s-35.3-1.6-52.5-4.6v-106.3h202.2Z"/>
      <path class="st4" d="M1716.5,1979.1v106.3c-17.2,3.1-34.8,4.6-52.6,4.6-53.5,0-105.8-14.6-149.6-41.1v-69.8h202.2Z"/>
      <path class="st3" d="M2006.8,1668.5c21.4-40.6,33.5-86.8,33.5-135.8,0-161.5-130.9-292.3-292.3-292.3s-196.3,54.8-247.9,137.3c-51.7-82.5-143.4-137.3-247.9-137.3-161.4,0-292.3,130.8-292.3,292.3s12.1,95.2,33.5,135.8c-74.9,27.3-128.5,99.1-128.5,183.4s87.4,195.2,195.2,195.2,94.4-18.3,128.7-48.5c39.3,30.2,90.9,48.5,147.4,48.5s123.2-24.1,164-62.7c40.8,38.5,99.2,62.7,164,62.7s108.1-18.3,147.4-48.5c34.3,30.2,79.4,48.5,128.7,48.5,107.8,0,195.1-87.4,195.1-195.2s-53.5-156.2-128.4-183.4h0Z"/>
      <g>
        <path class="st5" d="M1194.1,2004.4c-2.8,0-5.7-1.1-7.8-3.3-4.1-4.3-3.9-11.1.4-15.2,8.8-8.4,16.9-17.7,23.9-27.6,3.4-4.8,10.1-6,15-2.6,4.8,3.4,6,10.1,2.6,15-7.8,11.1-16.8,21.4-26.7,30.8-2.1,2-4.7,2.9-7.4,2.9h0Z"/>
        <path class="st5" d="M1138.6,1698c-33.8-11.8-70.9-.5-92.8,26.4-15.4-16.6-28.8-34.9-39.8-54.6-2.9-5.2-9.4-7-14.6-4.1s-7,9.4-4.1,14.6c12.8,22.9,28.6,44.1,46.9,63-13.1,29.4-8.3,63.7,12.7,88.4,2.1,2.5,5.2,3.8,8.2,3.8s4.9-.8,6.9-2.6c4.5-3.8,5.1-10.6,1.2-15.1-16.3-19.2-19.5-46.2-8.2-68.7,14.1-27.9,46.9-41.2,76.4-30.9,5.6,2,11.7-1,13.7-6.6,2-5.6-1-11.7-6.6-13.7h0Z"/>
        <path class="st5" d="M1805.9,2004.4c-2.7,0-5.3-1-7.4-2.9-9.8-9.3-18.8-19.7-26.7-30.8-3.4-4.8-2.3-11.5,2.6-15,4.8-3.4,11.5-2.3,15,2.6,7,9.9,15.1,19.2,23.9,27.6,4.3,4.1,4.5,10.9.4,15.2-2.1,2.2-4.9,3.3-7.8,3.3h0Z"/>
        <path class="st5" d="M2008.2,1666.4c-5.2-2.9-11.7-1.1-14.6,4.1-10.9,19.5-24.2,37.5-39.4,53.9-21.9-26.9-58.9-38.2-92.8-26.4-5.6,1.9-8.6,8.1-6.6,13.7,1.9,5.6,8.1,8.6,13.7,6.6,29.5-10.3,62.3,3,76.4,30.9,11.3,22.5,8.1,49.4-8.2,68.7-3.8,4.5-3.3,11.3,1.2,15.1,2,1.7,4.5,2.6,6.9,2.6s6.1-1.3,8.2-3.8c21-24.7,25.8-59,12.7-88.4,18.1-18.7,33.8-39.6,46.5-62.3,2.9-5.2,1.1-11.7-4.1-14.6h0Z"/>
      </g>
      <g>
        <path class="st4" d="M1387.3,1694.4c-11.9,0-21.5-9.6-21.5-21.5,0-28-18.1-37.9-33.6-37.9s-33.6,9.9-33.6,37.9-9.6,21.5-21.5,21.5-21.5-9.6-21.5-21.5c0-53.1,38.5-80.8,76.5-80.8s76.5,27.8,76.5,80.8-9.6,21.5-21.5,21.5h0Z"/>
        <path class="st4" d="M1722.8,1694.4c-11.9,0-21.5-9.6-21.5-21.5,0-28-18.1-37.9-33.6-37.9s-33.6,9.9-33.6,37.9-9.6,21.5-21.5,21.5h0c-11.9,0-21.5-9.6-21.5-21.5,0-53.1,38.5-80.8,76.5-80.8h0c38,0,76.5,27.8,76.5,80.8s-9.6,21.5-21.5,21.5h0Z"/>
        <g>
          <ellipse class="st4" cx="1493.4" cy="1730.3" rx="43.7" ry="59.9"/>
          <path class="st5" d="M1532.8,1756.4c-7.1,20-22,33.8-39.3,33.8s-32.3-13.8-39.4-33.8c7.1-20,22-33.8,39.4-33.8s32.3,13.8,39.3,33.8Z"/>
        </g>
      </g>
    </g>
  </g>
</svg>